<svg xmlns="http://www.w3.org/2000/svg" xmlns:xlink="http://www.w3.org/1999/xlink" aria-hidden="true" role="img" class="iconify iconify--logos" width="31.88" height="32" preserveAspectRatio="xMidYMid meet" viewBox="0 0 256 257"><defs><linearGradient id="IconifyId1813088fe1fbc01fb466" x1="-.828%" x2="57.636%" y1="7.652%" y2="78.411%"><stop offset="0%" stop-color="#41D1FF"></stop><stop offset="100%" stop-color="#BD34FE"></stop></linearGradient><linearGradient id="IconifyId1813088fe1fbc01fb467" x1="43.376%" x2="50.316%" y1="2.242%" y2="89.03%"><stop offset="0%" stop-color="#FFEA83"></stop><stop offset="8.333%" stop-color="#FFDD35"></stop><stop offset="100%" stop-color="#FFA800"></stop></linearGradient></defs><path fill="url(#IconifyId1813088fe1fbc01fb466)" d="M255.153 37.938L134.897 252.976c-2.483 4.44-8.862 4.466-11.382.048L.875 37.958c-2.746-4.814 1.371-10.646 6.827-9.67l120.385 21.517a6.537 6.537 0 0 0 2.322-.004l117.867-21.483c5.438-.991 9.574 4.796 6.877 9.62Z"></path><path fill="url(#IconifyId1813088fe1fbc01fb467)" d="M185.432.063L96.44 17.501a3.268 3.268 0 0 0-2.634 3.014l-5.474 92.456a3.268 3.268 0 0 0 3.997 3.378l24.777-5.718c2.318-.535 4.413 1.507 3.936 3.838l-7.361 36.047c-.495 2.426 1.782 4.5 4.151 3.78l15.304-4.649c2.372-.72 4.652 1.36 4.15 3.788l-11.26 56.762c-.732 3.691 3.979 5.626 6.59 2.69l17.661-22.262c1.63-2.053 4.908-1.935 6.4.192l13.967 19.389c1.64 2.28 5.234 2.05 6.667-.442l27.339-37.365c1.423-1.944.443-4.804-1.992-5.078l-19.359-2.2c-2.421-.275-4.183-2.41-3.862-4.83l6.998-29.527c.338-1.427 1.73-2.37 3.146-1.988l20.446 4.415c2.712.586 5.099-1.638 4.433-4.362l-8.185-33.145c-.735-2.98 2.057-5.403 4.99-4.536l29.101 8.666c2.93.872 4.462-3.213 2.4-5.4l-18.4-19.355c-1.8-1.893-1.172-4.892 1.301-6.02l24.464-11.365c2.473-1.128 2.473-4.89 0-6.018L185.432.063Z"></path></svg>
